<svg xmlns="http://www.w3.org/2000/svg" width="561" height="560" fill="none" viewBox="0 0 561 560"><g clip-path="url(#clip0_402_8)"><path fill="#000" d="M394.456 0H166.543C74.5637 0 0 74.5637 0 166.543V393.457C0 485.436 74.5637 560 166.543 560H394.456C486.435 560 560.999 485.436 560.999 393.457V166.543C560.999 74.5637 486.435 0 394.456 0Z"/><path fill="#041730" d="M394.456 0H166.543C74.5637 0 0 74.5637 0 166.543V393.457C0 485.436 74.5637 560 166.543 560H394.456C486.435 560 560.999 485.436 560.999 393.457V166.543C560.999 74.5637 486.435 0 394.456 0Z"/><g clip-path="url(#clip1_402_8)"><path fill="url(#paint0_linear_402_8)" d="M92.1075 109C77.0875 109 65 121.756 65 137.437V279.55V340.702V422.563C65 438.244 77.0875 451 92.1075 451C107.127 451 119.215 438.244 119.215 422.563V137.437C119.143 121.756 107.056 109 92.1075 109Z"/><path fill="url(#paint1_linear_402_8)" d="M467.893 109C452.944 109 440.785 121.756 440.785 137.437V422.563C440.785 438.244 452.944 451 467.893 451C482.841 451 495 438.244 495 422.563V137.437C495 121.756 482.841 109 467.893 109Z"/><path fill="url(#paint2_linear_402_8)" d="M217.345 168.276C202.397 168.276 190.238 180.957 190.238 196.713V363.287C190.238 378.968 202.397 391.724 217.345 391.724C232.294 391.724 244.453 378.968 244.453 363.287V196.713C244.453 181.032 232.294 168.276 217.345 168.276Z"/><path fill="url(#paint3_linear_402_8)" d="M342.655 216.147C327.706 216.147 315.547 228.903 315.547 244.584V314.89C315.547 330.572 327.706 343.328 342.655 343.328C357.603 343.328 369.762 330.572 369.762 314.89V244.584C369.691 228.828 357.603 216.147 342.655 216.147Z"/></g></g><defs><linearGradient id="paint0_linear_402_8" x1="64.351" x2="641.359" y1="283.019" y2="225.883" gradientUnits="userSpaceOnUse"><stop stop-color="#4400E2"/><stop offset=".041" stop-color="#7013C5"/><stop offset=".087" stop-color="#9A25AA"/><stop offset=".133" stop-color="#BC3494"/><stop offset=".18" stop-color="#D73F82"/><stop offset=".228" stop-color="#EA4876"/><stop offset=".278" stop-color="#F54C6E"/><stop offset=".33" stop-color="#F94E6C"/><stop offset="1" stop-color="#FFD402"/></linearGradient><linearGradient id="paint1_linear_402_8" x1="68.362" x2="645.371" y1="323.533" y2="266.398" gradientUnits="userSpaceOnUse"><stop stop-color="#4400E2"/><stop offset=".041" stop-color="#7013C5"/><stop offset=".087" stop-color="#9A25AA"/><stop offset=".133" stop-color="#BC3494"/><stop offset=".18" stop-color="#D73F82"/><stop offset=".228" stop-color="#EA4876"/><stop offset=".278" stop-color="#F54C6E"/><stop offset=".33" stop-color="#F94E6C"/><stop offset="1" stop-color="#FFD402"/></linearGradient><linearGradient id="paint2_linear_402_8" x1="65.688" x2="642.697" y1="296.525" y2="239.389" gradientUnits="userSpaceOnUse"><stop stop-color="#4400E2"/><stop offset=".041" stop-color="#7013C5"/><stop offset=".087" stop-color="#9A25AA"/><stop offset=".133" stop-color="#BC3494"/><stop offset=".18" stop-color="#D73F82"/><stop offset=".228" stop-color="#EA4876"/><stop offset=".278" stop-color="#F54C6E"/><stop offset=".33" stop-color="#F94E6C"/><stop offset="1" stop-color="#FFD402"/></linearGradient><linearGradient id="paint3_linear_402_8" x1="66.995" x2="644.004" y1="309.726" y2="252.591" gradientUnits="userSpaceOnUse"><stop stop-color="#4400E2"/><stop offset=".041" stop-color="#7013C5"/><stop offset=".087" stop-color="#9A25AA"/><stop offset=".133" stop-color="#BC3494"/><stop offset=".18" stop-color="#D73F82"/><stop offset=".228" stop-color="#EA4876"/><stop offset=".278" stop-color="#F54C6E"/><stop offset=".33" stop-color="#F94E6C"/><stop offset="1" stop-color="#FFD402"/></linearGradient><clipPath id="clip0_402_8"><rect width="560.999" height="560" fill="#fff"/></clipPath><clipPath id="clip1_402_8"><rect width="430" height="342" fill="#fff" transform="translate(65 109)"/></clipPath></defs></svg>