<?xml version="1.0" standalone="no"?>
<!DOCTYPE svg PUBLIC "-//W3C//DTD SVG 20010904//EN"
 "http://www.w3.org/TR/2001/REC-SVG-20010904/DTD/svg10.dtd">
<svg version="1.0" xmlns="http://www.w3.org/2000/svg"
 width="561.000000pt" height="561.000000pt" viewBox="0 0 561.000000 561.000000"
 preserveAspectRatio="xMidYMid meet">
<metadata>
Created by potrace 1.14, written by Peter Selinger 2001-2017
</metadata>
<g transform="translate(0.000000,561.000000) scale(0.100000,-0.100000)"
fill="#000000" stroke="none">
<path d="M1509 5606 c-2 -2 -31 -7 -64 -11 -32 -3 -62 -8 -65 -10 -3 -2 -23
-6 -45 -9 -90 -15 -240 -62 -350 -112 -22 -10 -42 -18 -45 -19 -3 0 -9 -3 -15
-7 -5 -3 -32 -18 -60 -33 -345 -189 -621 -507 -759 -878 -46 -122 -72 -228
-96 -389 -11 -75 -8 -2651 3 -2688 4 -14 9 -38 12 -55 16 -125 83 -329 153
-468 239 -470 694 -808 1202 -892 25 -5 56 -10 70 -13 14 -3 610 -7 1325 -8
1307 -3 1333 -3 1505 29 123 23 307 90 438 159 80 42 206 120 222 138 3 3 23
18 45 35 22 16 83 72 136 125 256 255 422 586 476 950 10 70 11 2637 0 2705
-14 97 -19 121 -42 212 -146 577 -623 1049 -1205 1193 -196 48 -186 48 -1551
49 -707 0 -1288 -1 -1290 -3z"/>
</g>
</svg>
